<?xml version="1.0" encoding="UTF-8"?>
<svg version="1.1" xmlns="http://www.w3.org/2000/svg" width="512" height="512">
<path d="M0 0 C0.7412915 0.00491455 1.48258301 0.0098291 2.24633789 0.01489258 C17.34163297 0.33488198 29.26777731 6.59507095 39.6875 17.3125 C49.224799 27.88923694 53.53343185 40.08687394 53.6875 54.3125 C52.39670945 71.50255187 46.00046105 84.06259339 33.1171875 95.40234375 C30.7372494 97.27338833 28.31780471 98.81949786 25.6875 100.3125 C25.86853271 100.84109619 26.04956543 101.36969238 26.23608398 101.91430664 C28.23357068 107.81693437 30.03649225 113.75929644 31.75 119.75 C32.00587891 120.62720703 32.26175781 121.50441406 32.52539062 122.40820312 C42.8214898 158.3254437 38.82805418 197.53768974 20.80566406 230.32275391 C14.73260096 241.12962383 8.32835814 250.37773512 -0.3125 259.3125 C-1.46733235 260.6380467 -2.61392143 261.97084531 -3.75 263.3125 C-6.71731357 266.71784558 -9.83027411 269.97118359 -13 273.1875 C-13.91136719 274.11304688 -14.82273437 275.03859375 -15.76171875 275.9921875 C-17.96571969 277.99705206 -19.50341782 279.38959826 -22.3125 280.3125 C-23.55 280.02375 -24.7875 279.735 -26.0625 279.4375 C-29.04206241 278.95493434 -30.04169154 279.1428478 -32.64453125 280.7734375 C-34.90018586 282.83552455 -36.68299351 284.72498695 -38.3125 287.3125 C-38.23671045 290.92712786 -38.23671045 290.92712786 -37.3125 294.3125 C-39.46725908 300.82707111 -44.79597163 305.06469997 -49.609375 309.69140625 C-51.47305398 311.51717222 -53.33632313 313.34335662 -55.19921875 315.16992188 C-58.13741667 318.03676482 -61.08294126 320.89590454 -64.03564453 323.74780273 C-66.88831782 326.50486646 -69.71729126 329.2856481 -72.546875 332.06640625 C-73.43945007 332.91860245 -74.33202515 333.77079865 -75.25164795 334.64881897 C-76.06289124 335.44992599 -76.87413452 336.25103302 -77.70996094 337.07641602 C-78.43149353 337.77557632 -79.15302612 338.47473663 -79.89642334 339.19508362 C-81.59320477 341.24574452 -81.59320477 341.24574452 -81.05328369 343.86631775 C-80.80882507 344.67355789 -80.56436646 345.48079803 -80.3125 346.3125 C-79.75468195 353.84304362 -81.71788632 358.6599493 -86.5 364.25 C-90.30290841 368.40232093 -94.28485609 372.3790088 -98.3125 376.3125 C-97.90257812 377.27929688 -97.49265625 378.24609375 -97.0703125 379.2421875 C-88.50682536 399.76229149 -88.50821163 417.62453349 -96.0625 438.5 C-103.06214631 454.76870919 -117.95402318 475.88426514 -133.20703125 485.5078125 C-135.79142884 486.49554145 -137.92276456 486.64877822 -140.6875 486.6875 C-141.60273438 486.71585938 -142.51796875 486.74421875 -143.4609375 486.7734375 C-151.26507078 485.51194746 -156.88565401 478.00801832 -162.17333984 472.67871094 C-163.15900407 471.69248191 -164.14511019 470.70669436 -165.13162231 469.72131348 C-167.79683503 467.05667261 -170.45585291 464.38592763 -173.11377287 461.71401501 C-175.89684879 458.9184037 -178.6856212 456.1284866 -181.4737854 453.33795166 C-186.74750474 448.0580258 -192.01610672 442.7730242 -197.28287375 437.48616433 C-203.28135358 431.46529973 -209.28553974 425.45013943 -215.29020381 419.4354434 C-227.63731414 407.06744982 -239.97726593 394.69233817 -252.3125 382.3125 C-253.74352909 382.78894385 -255.17450916 383.26553496 -256.60546875 383.7421875 C-257.40235107 384.00757324 -258.1992334 384.27295898 -259.02026367 384.54638672 C-260.89030995 385.17139526 -262.75800767 385.80342713 -264.625 386.4375 C-278.91568455 389.82850989 -293.3228535 388.30550571 -306.3125 381.3125 C-309.53863856 379.20038741 -312.43666715 376.87683064 -315.3125 374.3125 C-315.92738281 373.79042969 -316.54226563 373.26835937 -317.17578125 372.73046875 C-326.83535089 363.92762369 -332.77554346 350.74021766 -333.515625 337.74609375 C-333.62123922 328.74248144 -333.68409663 319.33159197 -329.1484375 311.234375 C-328.16718198 309.36266813 -328.16718198 309.36266813 -328.3984375 307.359375 C-329.69713508 304.45118042 -331.63272177 302.74890593 -333.9375 300.5625 C-336.91019547 297.72700586 -339.69098861 294.89758934 -342.33984375 291.7578125 C-345.51542547 288.07663108 -348.93491175 284.74730825 -352.46484375 281.4140625 C-353.58183506 280.34683002 -354.69836516 279.27911464 -355.81445312 278.2109375 C-357.53642591 276.56308367 -359.26395662 274.92462587 -361.01586914 273.30859375 C-370.94379544 264.12093791 -370.94379544 264.12093791 -371.88720703 259.49365234 C-371.75390625 256.875 -371.75390625 256.875 -371.42407227 254.45166016 C-371.07608155 251.96593008 -371.07608155 251.96593008 -373.5 249.1484375 C-374.8921875 247.93027344 -374.8921875 247.93027344 -376.3125 246.6875 C-377.240625 245.84960938 -378.16875 245.01171875 -379.125 244.1484375 C-380.2078125 243.23964844 -380.2078125 243.23964844 -381.3125 242.3125 C-381.9725 242.6425 -382.6325 242.9725 -383.3125 243.3125 C-385.9375 243.8125 -385.9375 243.8125 -389.3125 243.3125 C-391.11331177 242.00405884 -391.11331177 242.00405884 -393.02783203 240.26416016 C-393.73087463 239.62649719 -394.43391724 238.98883423 -395.15826416 238.33184814 C-398.5706362 235.13314213 -401.92452492 231.88268909 -405.2421875 228.5859375 C-405.95859406 227.87523102 -406.67500061 227.16452454 -407.41311646 226.43228149 C-408.9118781 224.94289133 -410.4092494 223.45210088 -411.90527344 221.95996094 C-414.19541882 219.67961507 -416.49601561 217.41015354 -418.796875 215.140625 C-420.25846838 213.68555436 -421.71942864 212.22984742 -423.1796875 210.7734375 C-423.86610321 210.09936859 -424.55251892 209.42529968 -425.25973511 208.73080444 C-429.63458555 204.33526848 -432.04841526 201.21743212 -432.625 194.875 C-431.89306612 186.53095376 -426.23234373 181.72378332 -420.5625 176.125 C-419.71067139 175.28219482 -418.85884277 174.43938965 -417.98120117 173.57104492 C-399.72268922 155.80439074 -377.63026022 142.0735192 -351.3125 142.3125 C-342.17500435 142.90958256 -334.58100166 145.51871688 -326.3125 149.3125 C-324.64964079 149.98860759 -322.98413195 150.65838315 -321.3125 151.3125 C-320.92505615 150.90410889 -320.5376123 150.49571777 -320.13842773 150.07495117 C-318.3531944 148.20585672 -316.55190441 146.35302226 -314.75 144.5 C-314.14091797 143.85740234 -313.53183594 143.21480469 -312.90429688 142.55273438 C-308.36286398 137.9151865 -304.43184458 134.85064144 -297.80078125 133.984375 C-297.08277344 134.01015625 -296.36476563 134.0359375 -295.625 134.0625 C-294.89925781 134.07796875 -294.17351562 134.0934375 -293.42578125 134.109375 C-291.3125 134.3125 -291.3125 134.3125 -289.40153313 135.00999069 C-287.26242094 135.55477358 -287.26242094 135.55477358 -285.56317329 134.1700325 C-284.97297338 133.57132717 -284.38277348 132.97262184 -283.77468872 132.35577393 C-282.74922691 131.33411888 -282.74922691 131.33411888 -281.70304871 130.29182434 C-280.96331314 129.52939926 -280.22357758 128.76697418 -279.46142578 127.98144531 C-278.27996223 126.79384865 -278.27996223 126.79384865 -277.07463074 125.58226013 C-274.45746429 122.9462307 -271.85810864 120.29328843 -269.2578125 117.640625 C-267.43750182 115.80336427 -265.61585735 113.96742415 -263.79293823 112.13275146 C-258.97747147 107.2810903 -254.17579887 102.41604747 -249.37823486 97.54669189 C-241.73830865 89.79253061 -234.08353922 82.05318322 -226.41613388 74.32619476 C-223.75394139 71.63734105 -221.10197053 68.93870597 -218.45071411 66.23907471 C-207.33283284 54.97735972 -196.00106425 44.35924173 -182.4375 36.0625 C-181.77588867 35.65612305 -181.11427734 35.24974609 -180.43261719 34.83105469 C-163.96946578 24.96873183 -144.45633321 18.03109412 -125.3125 16.3125 C-124.60222656 16.24691895 -123.89195312 16.18133789 -123.16015625 16.11376953 C-96.45317955 13.79746144 -72.08559839 18.53509088 -47.3125 28.3125 C-46.76722656 27.5390625 -46.22195313 26.765625 -45.66015625 25.96875 C-34.32281829 10.30965757 -20.02649965 -0.15888565 0 0 Z M-6.3125 46.3125 C-8.33892108 48.63255031 -8.33892108 48.63255031 -9.3125 51.3125 C-8.77350704 55.65978747 -6.35327318 58.01189008 -3.28515625 60.94140625 C-1.20615848 62.63698393 -1.20615848 62.63698393 2.375 62.5625 C6.32190074 61.07310349 7.67604916 60.01356955 9.6875 56.3125 C10.4375 52.8125 10.4375 52.8125 9.6875 49.3125 C7.43081324 46.34656882 5.69865924 44.72733456 2.25 43.3125 C-1.34162215 43.3125 -3.31960122 44.36060949 -6.3125 46.3125 Z " fill="#020100" transform="translate(432.3125,25.6875)"/>
<path d="M0 0 C1.67283189 1.43032076 3.34021577 2.86705877 5 4.3125 C5.65484375 4.84617188 6.3096875 5.37984375 6.984375 5.9296875 C30.08026362 24.83561402 45.17648644 56.07242232 49 85.3125 C49.37457769 90.06001946 49.35382537 94.8078604 49.28125 99.56665039 C49.24974765 101.64162181 49.24021854 103.71582695 49.234375 105.79101562 C49.01388679 144.62493482 30.94088063 175.60905369 4 202.3125 C2.33624807 203.77415776 0.67027932 205.23330576 -1 206.6875 C-2.88012382 208.35150338 -2.88012382 208.35150338 -4 210.3125 C-3.9662282 212.92137134 -3.50675272 215.27732051 -3.015625 217.8359375 C-2.98918368 222.02688712 -5.36874716 224.01619022 -8.140625 226.9140625 C-11.41756041 228.51671671 -12.49452635 228.21147717 -16.02368164 227.81201172 C-21.11001543 227.76462206 -23.41719211 228.88211264 -27.19604492 232.25976562 C-28.98598453 234.05143436 -30.74623348 235.87310955 -32.48046875 237.71875 C-33.42638009 238.6852125 -34.37477541 239.64924947 -35.32551575 240.61096191 C-37.80509382 243.13227123 -40.24984182 245.68481977 -42.68847656 248.2456665 C-45.18919374 250.85950652 -47.72188208 253.44196357 -50.25195312 256.02734375 C-55.19946927 261.0923524 -60.11082274 266.19110202 -65 271.3125 C-68.34750816 269.85615785 -70.54371752 268.01801559 -73.1164093 265.44332886 C-74.33374252 264.23228737 -74.33374252 264.23228737 -75.57566833 262.9967804 C-76.45731155 262.10951767 -77.33895477 261.22225494 -78.24731445 260.30810547 C-79.19177797 259.36471533 -80.13667439 258.42175842 -81.08197021 257.47920227 C-83.64663697 254.91938109 -86.20501143 252.35335477 -88.76217675 249.78604269 C-91.44486307 247.09455872 -94.13283442 244.40836238 -96.82011414 241.72146606 C-101.33686256 237.20378097 -105.84972252 232.682241 -110.36010742 228.15820312 C-115.55994909 222.94267875 -120.76495527 217.73235574 -125.97301131 212.52503479 C-131.53124218 206.96748228 -137.08564576 201.40611652 -142.63895392 195.84364557 C-144.23149724 194.24898055 -145.82474116 192.65501844 -147.41814613 191.06121445 C-149.9346186 188.543729 -152.44849555 186.02367838 -154.96047974 183.50171471 C-156.31127841 182.14665323 -157.66446404 180.79397248 -159.01774597 179.44139099 C-163.27527671 175.16171639 -167.36409623 170.8112093 -171.30135059 166.23629951 C-174.31350473 162.82489475 -177.5459237 159.63613466 -180.77124023 156.42773438 C-181.51353378 155.6852948 -182.25582733 154.94285522 -183.02061462 154.17791748 C-185.44757535 151.75164723 -187.87804682 149.32892725 -190.30859375 146.90625 C-192.00274677 145.21396423 -193.69667753 143.52145593 -195.39039612 141.82873535 C-199.82850599 137.39442642 -204.26961179 132.96313003 -208.71136475 128.5324707 C-213.25145978 124.00264208 -217.78869216 119.4699481 -222.32617188 114.9375 C-231.2146607 106.05970573 -240.10622264 97.18499605 -249 88.3125 C-244.72751073 83.21437466 -240.26261641 78.42185642 -235.56445312 73.71582031 C-234.8447937 72.99119598 -234.12513428 72.26657166 -233.38366699 71.51998901 C-231.01895924 69.14076477 -228.65045539 66.76537011 -226.28125 64.390625 C-225.4657518 63.57229942 -224.6502536 62.75397385 -223.81004333 61.91085052 C-219.49131522 57.57716969 -215.16974562 53.24634684 -210.84570312 48.91796875 C-206.41233178 44.47912961 -201.9883059 40.03109976 -197.56647491 35.58076859 C-194.1362954 32.13182777 -190.69929229 28.68974677 -187.26048279 25.24941254 C-185.62835907 23.61429034 -183.99870205 21.97670164 -182.37171936 20.33646393 C-132.77728608 -29.63295597 -59.10762319 -47.81470331 0 0 Z " fill="#FDCE04" transform="translate(405,84.6875)"/>
<path d="M0 0 C2.28977551 2.14726424 4.51108008 4.3460494 6.71676493 6.57957971 C7.97914685 7.83366004 7.97914685 7.83366004 9.26703143 9.11307532 C11.57326799 11.40814897 13.87045457 13.71183367 16.16389775 16.01967835 C18.65015709 18.51713064 21.14801667 21.0029372 23.64436197 23.49030054 C28.5217841 28.35384475 33.38847158 33.22799329 38.25140539 38.10601953 C43.92320149 43.79474225 49.60508753 49.47334316 55.28721908 55.15173914 C65.42966402 65.28831555 75.56208243 75.43485626 85.68923807 85.58670557 C95.50069441 95.42208285 105.32052928 105.24899848 115.14919901 115.06717432 C125.87052704 125.77707576 136.58706831 136.4917256 147.29547477 147.21454817 C148.43876315 148.35936228 149.58205421 149.5041737 150.725348 150.64898241 C151.28776075 151.21215298 151.85017351 151.77532354 152.42962907 152.35555989 C156.38030398 156.31096393 160.33424883 160.26308081 164.28941965 164.21398866 C169.11338912 169.03301565 173.9318129 173.85750998 178.74341908 178.68888239 C181.19527623 181.15056548 183.64938573 183.60987729 186.11011934 186.06269014 C188.7831363 188.72972436 191.44669155 191.40587332 194.10812235 194.08446252 C195.26274914 195.23007425 195.26274914 195.23007425 196.44070172 196.39882964 C203.54750464 203.58879514 209.75551141 211.62578477 213.65847635 221.02249658 C214.01296854 221.87585596 214.36746073 222.72921533 214.7326951 223.60843408 C218.50707315 237.52744848 216.17057814 252.39635177 209.65847635 265.02249658 C209.08999979 266.12593408 208.52152323 267.22937158 207.9358201 268.36624658 C201.08948448 280.34369999 191.43462702 290.39452957 181.65847635 300.02249658 C174.99268107 294.54342489 168.95614888 288.46135325 162.86746073 282.36087549 C161.6858892 281.18066086 160.50410544 280.00065866 159.32212687 278.82085168 C156.12768837 275.63095362 152.93639913 272.43792256 149.74581957 269.2441653 C146.39671434 265.89251832 143.04515851 262.54332328 139.69399881 259.19373071 C134.0669143 253.56846285 128.44193529 247.94109605 122.81814432 242.31253564 C116.33019731 235.81914964 109.83865944 229.32937021 103.34523964 222.84145737 C97.75677533 217.2575417 92.1702755 211.67166626 86.58539104 206.0841701 C83.25573774 202.75296332 79.92542571 199.42242262 76.59333658 196.09365213 C73.45886995 192.96208961 70.32688918 189.82806134 67.19675112 186.69217241 C66.05241235 185.5465195 64.90723686 184.4017016 63.76113176 183.25781572 C58.44162701 177.94765661 53.2101557 172.62266438 48.31858873 166.90929544 C45.13246493 163.28811001 41.69033568 159.91572016 38.27639627 156.51102197 C37.46904032 155.7019137 36.66168436 154.89280542 35.82986307 154.05917871 C33.18538444 151.41033151 30.53730414 148.7651199 27.8889451 146.12015283 C26.04271432 144.27324797 24.19663197 142.42619472 22.35069132 140.57899988 C18.49520072 136.72169787 14.63762363 132.866492 10.77883768 129.01248682 C6.31716696 124.55627995 1.85914124 120.09645089 -2.59705383 115.6347689 C-6.89351221 111.3332325 -11.1927685 107.03450412 -15.49323225 102.73697221 C-17.32048855 100.91038428 -19.14699875 99.08304968 -20.97275877 97.25496614 C-23.51490558 94.71029228 -26.06021405 92.16882463 -28.60641623 89.62820947 C-29.74330137 88.48828798 -29.74330137 88.48828798 -30.9031539 87.32533777 C-31.59416189 86.6371496 -32.28516989 85.94896142 -32.99711752 85.23991907 C-33.59825274 84.63916087 -34.19938797 84.03840267 -34.81873941 83.41943967 C-38.10097493 80.40844434 -41.03530322 80.9482514 -45.34152365 81.02249658 C-50.28294936 81.02249658 -51.13031273 79.96213059 -54.65402365 76.64749658 C-59.30476681 71.87578033 -59.30476681 71.87578033 -59.45089865 68.48343408 C-59.09235762 66.86999945 -58.73033722 65.25733322 -58.36447287 63.64554346 C-58.33321512 60.07284937 -59.47339529 59.14200663 -61.92746115 56.59280908 C-62.75479757 55.72430322 -63.582134 54.85579736 -64.43454123 53.96097314 C-65.40197905 52.97994376 -66.37107051 52.00054325 -67.34152365 51.02249658 C-67.86966665 50.48443384 -68.39780966 49.94637109 -68.941957 49.39200342 C-73.06378845 45.19457991 -77.22968822 41.04260229 -81.40402365 36.89749658 C-82.66402466 35.64252454 -83.92379189 34.38731772 -85.18332052 33.13187158 C-88.23337218 30.09270574 -91.28654985 27.05671431 -94.34152365 24.02249658 C-81.27666111 8.60606932 -62.74953479 -9.50472835 -41.6657424 -12.79781592 C-25.27317044 -14.06514081 -12.71846155 -10.7412117 0 0 Z " fill="#FDCE04" transform="translate(110.34152364730835,196.97750341892242)"/>
<path d="M0 0 C3.49038679 1.19974749 5.24627195 2.99123651 7.86169243 5.59457779 C8.36077995 6.08601422 8.85986748 6.57745065 9.37407887 7.0837791 C11.04267744 8.73175203 12.69664446 10.3936618 14.35098076 12.05594254 C15.54463191 13.24089898 16.73911613 14.42501675 17.93437004 15.60835648 C21.17699029 18.82418429 24.40666932 22.05271935 27.63338423 25.28449726 C30.32638278 27.97963361 33.02530675 30.66879705 35.72416317 33.35806537 C42.08838438 39.7000936 48.44188474 46.05272442 54.78896904 52.41189957 C61.34329097 58.97831432 67.91577925 65.5261345 74.49739349 72.06518388 C80.14391862 77.67652639 85.77881426 83.29936176 91.40451539 88.93158126 C94.76631912 92.29701769 98.13246105 95.6578102 101.50991249 99.00754929 C104.68341419 102.15598207 107.84218829 105.31847205 110.99006271 108.49252129 C112.14950546 109.65671336 113.31412146 110.81577873 114.48413467 111.969347 C116.07709469 113.5415161 117.65055224 115.13090753 119.22033501 116.72616959 C120.10705832 117.61255741 120.99378162 118.49894524 121.90737534 119.4121933 C123.66006279 121.91434097 123.66006279 121.91434097 123.59403992 124.55769348 C122.22294613 128.01729077 119.76246859 130.2349378 117.09756279 132.72684097 C116.57742607 133.22893082 116.05728935 133.73102066 115.52139091 134.24832535 C114.24317709 135.47963225 112.95279132 136.69828168 111.66006279 137.91434097 C105.43905933 132.77176342 99.75982765 127.1559104 94.06240654 121.44607925 C93.00891198 120.393942 91.9552053 119.3420171 90.90130424 118.29028702 C88.05603021 115.44954867 85.21390071 112.60568407 82.37248421 109.76108789 C79.38773405 106.77379343 76.40053045 103.78895389 73.4137249 100.80371475 C68.39866044 95.79046624 63.38570023 90.77512085 58.37392998 85.75857925 C52.59489287 79.97410361 46.81226635 74.19323503 41.02775669 68.41423237 C36.04650474 63.43753149 31.06722058 58.45886811 26.08954906 53.47858608 C23.12318876 50.51067358 20.15617326 47.54342455 17.18737602 44.57794952 C14.39434992 41.78783106 11.60381759 38.99524138 8.81511879 36.20079803 C7.79655859 35.18092554 6.77716503 34.16188448 5.75683784 33.14377975 C0.67841692 28.0753941 -4.29030544 22.9947609 -8.88829231 17.48253059 C-10.45181313 15.67091178 -10.45181313 15.67091178 -13.33993721 13.91434097 C-12.82674198 9.70021861 -10.48366634 7.55978007 -7.58993721 4.60184097 C-6.72884346 3.69820816 -5.86774971 2.79457535 -4.98056221 1.86355972 C-2.33993721 -0.08565903 -2.33993721 -0.08565903 0 0 Z " fill="#F3B415" transform="translate(174.339937210083,214.0856590270996)"/>
<path d="M0 0 C-4.17814592 1.27918484 -6.3041326 0.37089457 -10.375 -1.25 C-17.44154703 -3.94825521 -24.54563641 -5.67557526 -32 -7 C-32.99902344 -7.18433594 -33.99804688 -7.36867188 -35.02734375 -7.55859375 C-70.69073477 -11.52119275 -106.30859678 -3.60529347 -134.99609375 18.46875 C-145.86245849 27.62532263 -155.79612229 37.66613054 -165.8203125 47.72265625 C-167.53215958 49.4363715 -169.24422987 51.14986381 -170.95651245 52.86314392 C-175.43353937 57.34396464 -179.90755339 61.82778172 -184.38092041 66.31225586 C-188.95784003 70.89945749 -193.53763897 75.48378253 -198.1171875 80.06835938 C-207.08092557 89.04277936 -216.04157774 98.02027383 -225 107 C-228.41059403 105.39464713 -230.61792484 103.59481099 -233.25 100.875 C-233.95640625 100.15054688 -234.6628125 99.42609375 -235.390625 98.6796875 C-235.92171875 98.12539062 -236.4528125 97.57109375 -237 97 C-232.72751073 91.90187466 -228.26261641 87.10935642 -223.56445312 82.40332031 C-222.8447937 81.67869598 -222.12513428 80.95407166 -221.38366699 80.20748901 C-219.01895924 77.82826477 -216.65045539 75.45287011 -214.28125 73.078125 C-213.4657518 72.25979942 -212.6502536 71.44147385 -211.81004333 70.59835052 C-207.49131522 66.26466969 -203.16974562 61.93384684 -198.84570312 57.60546875 C-194.41233178 53.16662961 -189.9883059 48.71859976 -185.56647491 44.26826859 C-182.1362954 40.81932777 -178.69929229 37.37724677 -175.26048279 33.93691254 C-173.62835907 32.30179034 -171.99870205 30.66420164 -170.37171936 29.02396393 C-122.87492724 -18.83195441 -61.09461603 -34.96334657 0 0 Z " fill="#E1B703" transform="translate(393,76)"/>
<path d="M0 0 C2.625 2.0625 2.625 2.0625 4 5 C3.89838083 10.89391177 3.89838083 10.89391177 1.69799805 13.60302734 C-0.18957171 15.15596396 -1.81203939 15.89188862 -4.10546875 16.7265625 C-4.9159668 17.03110352 -5.72646484 17.33564453 -6.56152344 17.64941406 C-7.4280957 17.97135742 -8.29466797 18.29330078 -9.1875 18.625 C-45.73462954 32.80491829 -77.93585783 61.94011428 -94 98 C-95.61128487 101.97057744 -97.14545628 105.9691806 -98.56762695 110.01147461 C-100.0710152 114.1656103 -101.34629648 117.25972236 -105 120 C-108.87285839 120.55326548 -111.04481874 120.56331202 -114.4375 118.5625 C-116.75159619 114.76738225 -116.46021808 111.35205293 -116 107 C-115.16486499 103.87843873 -113.95164737 101.00468413 -112.625 98.0625 C-112.26849365 97.24837646 -111.9119873 96.43425293 -111.54467773 95.59545898 C-105.49721572 82.093755 -98.38222249 69.46542048 -89 58 C-88.36408936 57.21399414 -88.36408936 57.21399414 -87.71533203 56.41210938 C-77.42211539 43.7308063 -66.17090266 32.66645748 -53 23 C-52.4229834 22.57332031 -51.8459668 22.14664062 -51.25146484 21.70703125 C-38.78795617 12.61213298 -16.10843083 -3.31644164 0 0 Z " fill="#000000" transform="translate(197,0)"/>
<path d="M0 0 C2.375 1.625 2.375 1.625 4 4 C4.54407594 9.82523974 3.21175654 13.96321125 0.9375 19.1875 C0.4583313 20.30886353 0.4583313 20.30886353 -0.03051758 21.45288086 C-13.77099345 52.91711785 -38.93907601 76.90313326 -69.25 92.25 C-70.26090698 92.76264404 -70.26090698 92.76264404 -71.29223633 93.28564453 C-77.42791128 96.3326072 -82.99623281 98.77819635 -90 98 C-92.4375 96.5 -92.4375 96.5 -94 94 C-94.60921535 91.19531045 -94.86557371 88.75263191 -94 86 C-90.66628703 82.75053249 -87.43182552 81.22664469 -83.0625 79.75 C-67.71216884 74.0563597 -54.37839023 64.68591429 -43 53 C-42.34 53 -41.68 53 -41 53 C-40.75378906 52.43023437 -40.50757813 51.86046875 -40.25390625 51.2734375 C-38.79314681 48.62495777 -37.04055451 46.79852724 -34.9375 44.625 C-25.55327032 34.33699218 -19.59075061 22.61577754 -14 10 C-8.3205233 -2.60016353 -8.3205233 -2.60016353 0 0 Z " fill="#000000" transform="translate(472,298)"/>
<path d="M0 0 C2.4375 2.125 2.4375 2.125 4 5 C4.125 8.5625 4.125 8.5625 3 12 C-1.26860982 15.30785021 -5.80526677 17.34011576 -10.75 19.375 C-30.36197384 27.74247768 -47.08730573 41.04906613 -60 58 C-60.60585937 58.79019531 -61.21171875 59.58039063 -61.8359375 60.39453125 C-69.04615841 70.2310996 -74.61033613 81.17450019 -78.796875 92.609375 C-80.16993936 95.33767172 -81.37843129 96.46908392 -84 98 C-87.29029921 98.4112874 -89.2941394 98.32431433 -92.3125 96.9375 C-94.80799232 94.07230511 -94.76356703 91.76004697 -95 88 C-94.31651026 85.29749871 -93.59900019 82.99032058 -92.5625 80.4375 C-92.28881592 79.74277588 -92.01513184 79.04805176 -91.7331543 78.33227539 C-83.3062973 57.64774375 -68.50784435 37.88651498 -51 24 C-50.17870605 23.34281982 -50.17870605 23.34281982 -49.34082031 22.67236328 C-15.46380531 -4.23936708 -15.46380531 -4.23936708 0 0 Z " fill="#000000" transform="translate(211,36)"/>
<path d="M0 0 C0.76892578 -0.01611328 1.53785156 -0.03222656 2.33007812 -0.04882812 C11.94826795 -0.05694474 20.19775691 3.80414214 27.29296875 10.21484375 C34.7226508 17.92331312 38.41219263 26.14144339 38.75 36.875 C38.32212011 47.8985372 34.82354561 56.33707458 27.1875 64.3125 C20.62617177 70.35873331 20.62617177 70.35873331 17.12109375 70.24609375 C14.43999254 68.95158226 13.77017063 67.37832263 12.4375 64.75 C12.00953125 63.92371094 11.5815625 63.09742188 11.140625 62.24609375 C10.82609375 61.60800781 10.5115625 60.96992187 10.1875 60.3125 C10.71859375 59.93738281 11.2496875 59.56226563 11.796875 59.17578125 C18.78983807 54.10971129 24.03812069 48.86737605 25.58203125 40.0625 C26.10153051 32.52372001 23.34364877 26.496484 19.1875 20.3125 C13.93650036 14.89703952 7.6975908 13.22722589 0.375 12.875 C-6.49672293 13.00288566 -11.4873306 15.05253 -16.40625 19.875 C-18.42014926 22.21674333 -20.10051835 24.74452753 -21.8125 27.3125 C-25.92208767 25.86205729 -29.24508745 23.80139248 -32.8125 21.3125 C-28.28957653 11.01028542 -21.35594285 6.14947612 -11.5546875 1.1640625 C-7.68150082 -0.03872197 -4.03265135 -0.01665009 0 0 Z " fill="#A27950" transform="translate(431.8125,41.6875)"/>
<path d="M0 0 C2.3125 1.0625 2.3125 1.0625 4 3 C5 6.3125 5 6.3125 5 10 C-7.38682696 31.41354914 -40.00029409 48.58122197 -63.0703125 55.6328125 C-67.04710352 56.38952982 -70.41171698 55.87099391 -73.9375 53.9375 C-75.33940212 51.38109026 -75.46061897 48.9141148 -75.59375 46.03515625 C-74.64541864 42.78462574 -72.80371758 41.83529249 -70 40 C-67.1162469 38.62947104 -64.16026491 37.47449669 -61.1875 36.3125 C-41.82163821 28.40200319 -25.22017764 17.24176946 -10.0390625 2.86328125 C-6.69127567 -0.19590327 -4.4899326 -0.35919461 0 0 Z " fill="#000000" transform="translate(467,376)"/>
<path d="M0 0 C6.1241816 5.06500238 11.70715861 10.5782921 17.30859375 16.2109375 C18.28485986 17.18907267 19.26134994 18.16698435 20.23805237 19.14468384 C22.78672577 21.69714399 25.33237958 24.25259448 27.87738037 26.80871582 C30.48346618 29.42509914 33.09244621 32.03859303 35.70117188 34.65234375 C40.80359118 39.76543246 45.90281857 44.88168912 51 50 C47.35843433 53.64156567 43.46089524 54.29199635 38.4375 54.3125 C26.06765564 54.03930098 16.98278794 50.58070802 7.96484375 42.08203125 C0.06901544 33.68328394 -3.49177541 22.7408327 -3.26953125 11.28515625 C-2.80084356 7.31149977 -1.43064916 3.7128871 0 0 Z " fill="#F6B615" transform="translate(117,344)"/>
<path d="M0 0 C0 0.33 0 0.66 0 1 C-1.00417969 1.02578125 -2.00835937 1.0515625 -3.04296875 1.078125 C-32.31064457 2.15091312 -55.39538489 19.46183179 -75 40 C-76.08839774 39.11032656 -77.17044608 38.21288426 -78.25 37.3125 C-78.85328125 36.81363281 -79.4565625 36.31476563 -80.078125 35.80078125 C-82.3109424 33.7086495 -84.13539658 31.42150931 -86 29 C-64.57362794 6.48258667 -31.96633702 -21.09893854 0 0 Z " fill="#E1B804" transform="translate(102,191)"/>
<path d="M0 0 C2.4375 2.0625 2.4375 2.0625 4 5 C3.66272251 10.88361837 2.25188329 15.67831366 -0.0625 21.0625 C-0.52450806 22.15679321 -0.52450806 22.15679321 -0.99584961 23.27319336 C-12.11284889 49.07523259 -12.11284889 49.07523259 -21 55 C-24.33466685 54.82135713 -26.9860269 54.55604977 -29.9375 52.9375 C-31.67057776 49.77718173 -31.46169832 46.48242222 -31 43 C-29.75717707 40.47407747 -28.57352458 38.41185147 -27 36.125 C-22.49669214 29.1357802 -19.08971712 21.92190385 -15.82421875 14.2890625 C-15.52563965 13.59329102 -15.22706055 12.89751953 -14.91943359 12.18066406 C-14.26899221 10.63798151 -13.63839193 9.08686289 -13.02197266 7.53027344 C-12.69116699 6.72364258 -12.36036133 5.91701172 -12.01953125 5.0859375 C-11.72796143 4.35165527 -11.4363916 3.61737305 -11.13598633 2.86083984 C-8.43587266 -1.56217034 -4.58124811 -1.43164003 0 0 Z " fill="#000000" transform="translate(508,312)"/>
<path d="M0 0 C3.84698071 1.58691493 6.53346525 4.1783894 9.45703125 7.05078125 C9.96425217 7.54660202 10.47147308 8.04242279 10.99406433 8.55326843 C12.05994246 9.60031366 13.12298722 10.65025011 14.18334961 11.70288086 C15.81088794 13.31090727 17.45849376 14.89637557 19.10742188 16.48242188 C20.14193522 17.50388307 21.17518356 18.52662736 22.20703125 19.55078125 C22.70274124 20.02179764 23.19845123 20.49281403 23.70918274 20.97810364 C25.06567383 22.3527832 25.06567383 22.3527832 27 25 C26.92791857 29.36252805 25.08346013 31.34866464 22.00195312 34.34960938 C21.48568359 34.83236328 20.96941406 35.31511719 20.4375 35.8125 C19.91736328 36.31458984 19.39722656 36.81667969 18.86132812 37.33398438 C17.5831143 38.56529127 16.29272853 39.7839407 15 41 C8.63409696 35.75541414 2.86429388 29.97902678 -2.9375 24.125 C-3.91708237 23.14039081 -4.89689837 22.156014 -5.87695312 21.171875 C-8.25360252 18.78351797 -10.62787356 16.39284788 -13 14 C-9.81968878 10.2341894 -6.64858175 6.51561011 -3.125 3.0625 C-2.23167969 2.18271484 -2.23167969 2.18271484 -1.3203125 1.28515625 C-0.66675781 0.64900391 -0.66675781 0.64900391 0 0 Z " fill="#A37950" transform="translate(309,349)"/>
<path d="M0 0 C3.64728497 1.2685637 5.83237384 3.56648841 8.44775391 6.29003906 C9.23619942 7.08697426 9.23619942 7.08697426 10.04057312 7.90000916 C11.71069314 9.59244863 13.36633742 11.29828277 15.02197266 13.00488281 C16.15450774 14.15748855 17.28796164 15.30919223 18.42236328 16.45996094 C21.19548797 19.27709402 23.95571559 22.10632009 26.70947266 24.94238281 C24.92746578 28.79266272 22.63271861 31.22229702 19.58447266 34.19238281 C18.67439453 35.08441406 17.76431641 35.97644531 16.82666016 36.89550781 C16.12798828 37.57097656 15.42931641 38.24644531 14.70947266 38.94238281 C10.7042987 37.33865133 8.03236286 34.52124295 5.06884766 31.49707031 C4.54180237 30.96719513 4.01475708 30.43731995 3.47174072 29.89138794 C1.7962159 28.20470456 0.12779543 26.51118718 -1.54052734 24.81738281 C-2.67808585 23.66978893 -3.81610171 22.5226482 -4.95458984 21.37597656 C-7.73856199 18.57000144 -10.51618494 15.75787817 -13.29052734 12.94238281 C-11.62619482 9.42580176 -9.68641185 6.94751308 -6.97802734 4.12988281 C-6.21876953 3.3190625 -5.45951172 2.50824219 -4.67724609 1.67285156 C-2.29052734 -0.05761719 -2.29052734 -0.05761719 0 0 Z " fill="#A57B51" transform="translate(136.29052734375,176.0576171875)"/>
<path d="M0 0 C1.15224028 0.92961422 2.29659176 1.8690125 3.4375 2.8125 C4.07558594 3.33457031 4.71367188 3.85664063 5.37109375 4.39453125 C7 6 7 6 8 9 C7.44799805 10.90795898 7.44799805 10.90795898 6.57421875 13.05859375 C4.7597584 18.15498636 4.65026367 22.70038146 4.8125 28.0625 C4.82603516 28.92810547 4.83957031 29.79371094 4.85351562 30.68554688 C4.8884067 32.79064174 4.94219335 34.89540974 5 37 C2.22736148 34.39597427 1.13276805 32.23984518 -0.125 28.625 C-0.45757812 27.68914062 -0.79015625 26.75328125 -1.1328125 25.7890625 C-4.00258717 16.55924668 -3.55338253 8.94690959 0 0 Z " fill="#D79F13" transform="translate(117,344)"/>
</svg>
