<svg width="1280" height="720" xmlns="http://www.w3.org/2000/svg" xmlns:xlink="http://www.w3.org/1999/xlink" overflow="hidden"><g><rect x="0" y="0" width="1280" height="720" fill="#FFFFFF"/><path d="M741.169 18.6189C743.204 19.0851 744.998 20.2108 746.511 22.0681 715.626 66.9141 828.148 167.567 829.551 227.447 830.954 287.327 788.398 344.49 754.93 381.348L746.001 389.384 732.477 352.439C730.065 342.59 726.681 330.677 723.25 317.929L718.162 296.766 718.031 295.88C715.618 279.581 713.26 263.149 711.122 246.185L710.072 236.239 711.16 225.909C712.23 221.295 713.867 217.242 716.189 213.902L708.406 220.472 705.536 193.295C702.472 156.439 700.95 115.857 702.291 68.3561L703.273 45.1402 707.658 40.013C721.018 25.4348 733.026 16.7532 741.169 18.6189Z" fill="#F9B201" fill-rule="evenodd"/><path d="M603.046 202.717C610.117 155.36 706.252-2.27914 730.459 27.4402 699.574 72.2862 812.095 172.939 813.499 232.819 814.902 292.699 772.346 349.862 738.878 386.72L729.949 394.756 716.425 357.811C706.779 318.415 681.561 245.99 700.137 219.275 665.812 236.236 680.464 313.65 688.494 361.574L694.143 384.552 692.974 382.722C652.993 329.983 588.019 295.44 603.046 202.717Z" fill="#FFCC00" fill-rule="evenodd"/><path d="M893.227 294.035C996.144 423.32 640.173 660.812 589.282 694.987 538.39 729.162 659.567 523.701 587.878 499.086 516.189 474.471 445.85 716.597 441.126 660.085 436.402 603.573 395.782 182.198 559.533 160.015 575.824 280.266 556.427 411.041 681.923 434.714 807.42 458.387 826.484 376.662 893.227 294.035Z" fill="#0070C0" fill-rule="evenodd"/><path d="M644.738 325.138C655.577 325.039 665.496 326.27 674.622 327.14 706.565 330.183 734.659 353.45 738.114 404.722L738.037 425.337 735.065 425.544C722.403 425.674 708.378 424.362 692.691 421.403 645.63 412.526 618.945 388.587 603.112 355.79L596.464 337.001 609.341 331.112C622.143 326.664 633.9 325.236 644.738 325.138Z" fill="#3B3838" fill-rule="evenodd"/><path d="M572.693 391.446 578.724 408.493C593.089 438.249 617.3 459.968 659.998 468.022 674.231 470.707 686.955 471.898 698.443 471.779L701.139 471.592 701.129 474.401C699.051 505.213 687.43 555.074 671.836 607.025L660.054 644.304 651.645 650.738C616.332 677.132 587.489 696.413 575.946 704.164 529.773 735.171 639.715 548.76 574.673 526.426 509.63 504.093 445.813 723.771 441.526 672.499 440.455 659.681 437.348 626.173 435.611 582.807L435.342 573.513 437.445 569.122C460.545 521.852 482.566 481.872 502.395 455.461 526.191 423.767 547.34 405.14 566.228 394.402L572.693 391.446Z" fill="#203864" fill-rule="evenodd"/></g></svg>